<?xml version="1.0" encoding="utf-8"?>
<!-- Generator: Adobe Illustrator 18.0.0, SVG Export Plug-In . SVG Version: 6.00 Build 0)  -->
<!DOCTYPE svg PUBLIC "-//W3C//DTD SVG 1.1//EN" "http://www.w3.org/Graphics/SVG/1.1/DTD/svg11.dtd">
<svg version="1.1" id="Calque_1" xmlns="http://www.w3.org/2000/svg" xmlns:xlink="http://www.w3.org/1999/xlink" x="0px" y="0px"
	 viewBox="0 0 595.3 595.3" enable-background="new 0 0 595.3 595.3" xml:space="preserve">
<g>
	<path d="M-0.1,0c198.9,0,397,0,595.4,0c0,198.4,0,396.4,0,595.1c-198.3,0-396.7,0-595.4,0C-0.1,396.7-0.1,198.7-0.1,0z M95.6,165.5
		c0,86.4,0,172.1,0,258.5c2.9,0,5.5,0,8.1,0c33.2,0,66.5,0.2,99.7-0.1c12.5-0.1,25-1,37.4-2.5c37.8-4.8,64.3-33.2,66.1-71.2
		c1.4-29.3-9-52.2-37.6-64.3c-0.6-0.2-1.2-0.5-1.9-0.8c1.5-1,2-1.5,2.6-1.8c40.2-18.7,36.3-83.3,2.6-104.4
		c-14.3-9-30-13.2-46.5-13.4c-42.2-0.4-84.3-0.2-126.5-0.3C98.5,165.2,97.3,165.4,95.6,165.5z M509.3,368.1
		c-16.7,0-32.3-0.1-47.9,0.1c-1.4,0-3.4,1-4,2.2c-10.2,17.6-26.6,20.7-44.9,19.2c-24.3-1.9-42.5-23.8-38.9-47.7c45.8,0,91.7,0,138,0
		c0-8.6,0.4-16.5-0.1-24.4c-1.7-28.9-11.4-54.2-35.1-72.2c-19.3-14.7-42-18.4-65.6-17.7c-38.8,1.2-71,24.6-82.5,60.3
		c-6.3,19.5-7.4,39.6-5.1,60c1.9,17.8,6.7,34.5,18.1,48.7c30.5,38,99.9,45.5,139.2,14.9C494.5,400.5,505.3,387.3,509.3,368.1z
		 M469.3,205.4c0-8.9,0-17.2,0-25.1c-37.5,0-74.5,0-111.6,0c0,8.6,0,16.7,0,25.1C395,205.4,432,205.4,469.3,205.4z"/>
	<path d="M146.4,379.2c0-23.4,0-45.9,0-69.4c4.4,0,8.7,0,12.9,0c19.3,0.1,38.5-0.1,57.8,0.4c5.7,0.1,11.5,1.3,16.9,3.1
		c14.6,4.9,21.6,19.4,18.4,37.2c-3.2,18.3-14,27.7-35.9,28.6C193.6,379.9,170.5,379.2,146.4,379.2z"/>
	<path d="M146.1,267.1c0-3.4,0-5.8,0-8.2c0-15.9,0-31.7,0-47.3c0.7-0.6,1.1-1.2,1.4-1.2c25.9,0.4,51.9,0.1,77.8,1.5
		c14,0.8,21.3,9.4,22.1,21.3c1.2,18.3-4.2,27.4-19.3,31.6c-4.8,1.3-9.9,2.1-14.9,2.2C191,267.2,169,267.1,146.1,267.1z"/>
	<path d="M459.3,308.9c-28.2,0-56.4,0-84.7,0c-0.6-23.3,18.9-41.4,43.6-40.7C442.8,268.9,461.2,286.9,459.3,308.9z"/>
</g>
</svg>
