<?xml version="1.0" encoding="utf-8"?>
<!-- Generator: Adobe Illustrator 18.0.0, SVG Export Plug-In . SVG Version: 6.00 Build 0)  -->
<!DOCTYPE svg PUBLIC "-//W3C//DTD SVG 1.1//EN" "http://www.w3.org/Graphics/SVG/1.1/DTD/svg11.dtd">
<svg version="1.1" id="Calque_1" xmlns="http://www.w3.org/2000/svg" xmlns:xlink="http://www.w3.org/1999/xlink" x="0px" y="0px"
	 viewBox="0 0 595.3 595.3" enable-background="new 0 0 595.3 595.3" xml:space="preserve">
<style>
.st1{
	fill:#FFF;
}
</style>
<g>
	<path class="st1" d="M0.6,0v595.3h595.3V0H0.6z M422.3,69.7h102.1v102.8H422.3V69.7z M295.7,185.7c63-0.1,114.4,51.1,114.4,114.2
		c0.1,63.2-50.9,114.4-114,114.4c-63.2,0.1-114.4-51-114.5-114.1C181.5,237.2,232.7,185.9,295.7,185.7z M524.5,528.7h-24
		c-12.3,0-24.6,0-37,0c-112,0-223.9,0-335.9,0c-12.2,0-24.3,0-36.5,0H66.7v-51.3h0.4c0-72.9,0-145.9,0-218.8v-4h50.2
		c-15.7,91.9,13.9,162.6,96.3,209.2c67.1,31.1,132.3,27.2,191.4-17.3c63.8-47.9,84.2-113.8,68.8-191.7h50.6v4.8
		c0,72.7,0,145.3,0,217.9h0V528.7z"/>
</g>
</svg>
